# xmcd
#
# Track frame offsets: 
#        150
#        14409
#        26557
#        37902
#        54952
#        75780
#        86826
#        101789
#        114471
#        126528
#        148018
#        163152
#
# Disc length: 2334 seconds
#
# Revision: 0
# Processed by: cddbd v1.5.2PL0 Copyright (c) Steve Scherf et al.
# Submitted via: ExactAudioCopy v0.99pb5
#
DISCID=97091c0c
DTITLE=Alex Burns - The Blues Is Here To Stay
DYEAR=2004
DGENRE=Blues
TTITLE0=TV Mama
TTITLE1=Little Queen of Spades
TTITLE2=The Blues is Here to Stay
TTITLE3=My Heart's in Sorrow
TTITLE4=Blues Before Sunrise
TTITLE5=Gospel Ship
TTITLE6=Your Time to Worry
TTITLE7=Jelly Roll Baker
TTITLE8=Going to Chicago
TTITLE9=Memories of You
TTITLE10=Romance and Rhythm
TTITLE11=Must Jesus Bear the Cross
EXTD=
EXTT0=
EXTT1=
EXTT2=
EXTT3=
EXTT4=
EXTT5=
EXTT6=
EXTT7=
EXTT8=
EXTT9=
EXTT10=
EXTT11=
PLAYORDER=
